<?xml version="1.0" encoding="utf-8" ?><svg xmlns="http://www.w3.org/2000/svg" xmlns:xlink="http://www.w3.org/1999/xlink" width="1024" height="1024" viewBox="0 0 1024 1024"><path fill="#C89630" d="M862.856 360.781C867.226 363.301 874.586 370.207 878.687 373.897C902.719 395.161 924.143 419.202 942.51 445.516C985.021 506.687 1008.73 581.213 995.194 655.724C983.086 723.059 944.723 782.825 888.545 821.872C867.299 836.597 844.079 848.245 819.574 856.471C773.55 871.602 715.055 874.387 667.079 870.444C652.287 869.229 633.59 866.162 618.924 863.502C590.619 858.371 562.628 851.642 535.084 843.346C440.673 815.778 327.446 767.278 293.911 665.775C284.661 637.776 284.507 609.107 289.819 580.374C293.804 560.549 302.293 537.771 312.619 520.062C313.145 519.16 313.685 519.269 314.528 519.242C317.532 522.651 319.781 526.841 322.368 530.608C326.695 536.91 331.119 542.966 336.527 548.383C314.538 616.183 319.922 673.647 375.484 723.234C415.88 758.378 467.31 781.985 518.064 798.857C642.171 839.905 805.14 865.307 903.249 756.544C944.095 711.262 961.625 657.702 958.085 597.392C953.5 519.298 909.669 454.992 852.952 404.22C856.722 390.94 859.348 374.543 862.856 360.781Z"/><path fill="#C89630" d="M297.716 150.239C327.289 149.543 355.872 150.291 385.373 154.456C452.647 163.954 525.009 185.975 586.556 214.208C645.95 241.983 705.197 282.976 728.136 347.219C758.505 432.266 718.132 536.834 639.641 580.758C631.883 585.099 623.516 588.071 615.12 591.015C615.505 588.538 617.434 581.688 617.186 580.278L615.188 580.006L615.208 579.592L617.431 579.301C619.819 576.749 624.973 550.737 626.409 545.308C649.436 528.391 662.179 517.178 676.741 491.664C684.514 478.045 690.605 464.836 694.803 449.545C695.063 448.259 696.431 444.27 695.787 443.167C693.238 438.804 697.019 437.489 697.373 435.762C700.347 421.24 700.523 400.827 698.345 386.311C697.1 378.14 695.096 370.102 692.36 362.302C677.728 320.82 642.61 287.319 605.365 265.33C595.377 259.433 585.051 254.462 574.581 249.489C488.537 211.174 393.009 187.064 298.376 188.508C259.198 189.105 220.956 198.704 185.336 214.785C151.395 230.109 124.951 251.755 103.393 282.106C74.4578 323.619 60.8944 373.918 65.0363 424.351C65.7068 433.567 67.3021 442.886 68.8355 451.995C56.5909 472.528 50.5733 482.255 41.6479 504.365C31.9474 476.511 25.9886 453.534 24.4144 423.753C20.9283 357.797 41.3702 290.916 85.8041 241.426C125.824 196.851 180.358 168.092 238.902 156.839C258.755 153.023 277.667 151.44 297.716 150.239Z"/><path fill="#C89630" d="M575.987 12.7179C578.073 12.385 584.285 12.3716 586.661 12.3201C655.488 10.8287 726.849 43.6215 775.874 90.9274C832.456 145.525 860.347 219.918 861.475 297.858C861.726 315.194 860.016 346.643 856.746 363.58C847.279 412.611 824.279 475.751 798.867 518.914C783.732 544.68 765.637 568.588 744.949 590.151C743.539 582.909 742.789 576.251 741.156 568.822C738.727 560.286 736.342 552.848 733.546 544.429C743.238 530.844 753.479 518.614 762.924 504.309C784.554 471.759 797.931 433.95 808.995 396.728C831.007 322.683 828.389 240.833 789.772 172.379C783.055 160.2 775.266 148.643 766.497 137.847C736.318 101.165 689.705 69.4742 643.56 57.437C634.927 55.1764 626.131 53.5936 617.251 52.7031C611.87 52.15 598.144 51.2594 593.976 49.8836C585.297 47.0191 574.486 39.0884 565.701 34.8696C551.171 27.8915 536.983 23.4779 521.523 19.1684C541.313 15.7462 555.695 14.0761 575.987 12.7179Z"/><path fill="#C89630" d="M219.184 514.857C220.181 515.883 222.038 519.478 222.778 520.905C228.224 531.411 234.613 541.044 241.103 550.925C238.247 560.887 232.814 571.935 229.046 581.916C201.054 656.067 188.459 739.637 216.916 815.667C220.644 825.626 226.874 838.493 231.753 847.939C262.51 907.486 318.283 948.023 383.083 964.803C392.038 967.111 401.13 968.847 410.305 970.001C415.64 970.643 427.825 971.546 432.489 972.938C438.988 974.878 449.234 981.418 455.899 984.613C471.351 992.048 487.333 998.327 503.713 1003.4C495.952 1005.1 490.33 1006.2 482.511 1007.34C478.058 1007.65 472.343 1008.53 467.629 1008.96C458.344 1009.75 449.027 1010.12 439.708 1010.06C378.218 1009.68 318.514 989.345 269.574 952.116C225.129 917.561 192.253 870.298 175.317 816.608C170.147 799.619 166.43 782.221 164.208 764.602C154.316 691.528 169.066 625.743 197.942 558.675C202.008 549.232 213.361 522.512 219.184 514.857Z"/><path fill="#C89630" d="M160.042 360.372L160.749 360.553C161.181 361.787 163.087 371.746 163.515 373.689C165.832 384.024 168.215 394.343 170.665 404.647C157.914 416.488 145.673 427.901 134.233 441.046C108.852 470.21 87.8565 504.976 76.2037 541.947C53.4624 614.097 65.7768 696.098 116.7 753.404C123.866 761.389 131.638 768.808 139.947 775.595C146.019 780.637 156.97 788.258 161.349 794.018C164.3 797.899 167.267 813.301 169.422 818.604C173.192 827.88 177.451 840.835 181.915 849.462C175.338 846.548 168.497 842.628 162.228 839.092C129.055 819.037 101.152 797.397 77.3384 766.333C36.1459 712.698 18.1209 644.813 27.2805 577.809C36.6387 507.309 78.8115 436.863 129.132 388.051C138.554 378.912 149.631 368.322 160.042 360.372Z"/><path fill="#C89630" d="M431.222 12.717C446.325 12.2827 461.438 13.1442 476.394 15.2921C540.006 24.0518 598.968 53.4959 644.189 99.0834C658.721 113.645 668.836 126.436 681.132 142.593C664.586 143.777 651.127 145.654 634.812 147.557C624.007 134.805 615.742 125.397 603.322 114.123C565.159 80.0306 517.46 58.461 466.657 52.3228C451.146 50.5944 439.357 50.8142 423.875 51.5544C410.459 52.6447 397.842 53.9356 384.571 57.0055C347.041 65.6872 308.134 84.326 279.668 110.559C267.402 121.863 257.294 135.721 246.318 148.201C242.018 149.843 231.15 151.88 225.967 153.19C213.671 156.254 201.515 159.861 189.537 163.998C200.257 142.786 213.769 123.105 229.715 105.481C282.904 46.4915 352.632 16.8216 431.222 12.717Z"/><path fill="#C89630" d="M830.898 859.58C831.651 859.603 831.241 859.512 832.081 860.018C831.693 863.129 827.323 869.558 825.534 872.568C771.808 962.978 670.071 1019.4 563.761 1009.16C551.55 1007.96 539.423 1006.01 527.45 1003.32C523.724 1002.48 506.182 997.148 504.562 997.174L500.513 997.246C500.443 996.919 500.068 995.397 499.586 995.252C443.369 978.318 396.344 943.985 358.883 899.242C353.716 892.797 347.275 884.859 342.849 878.046C358.769 877.714 373.819 874.582 389.282 873.813C393.921 878.129 402.728 889.763 408.585 895.838C430.867 918.887 457.465 937.328 486.863 950.113C501.996 956.776 517.721 962.002 533.832 965.722C537.289 966.495 538.637 967.356 541.864 966.093L542.318 966.36L542.555 967.306C546.707 968.876 551.368 969.561 555.739 970.223C631.623 981.703 709.771 951.962 759.943 894.112C765.924 887.216 771.381 880.035 777.189 872.998C780.179 872.146 783.554 871.456 786.627 870.875C801.719 868.019 816.156 863.801 830.898 859.58Z"/><path fill="#C89630" d="M473.487 342.853C480.256 343.136 499.827 356.818 506.123 361.239C470.785 393.422 442.322 454.048 439.128 501.593C435.966 548.662 454.241 605.975 485.798 641.269C515.986 675.033 563.134 696.273 606.987 705.265C623.627 708.677 638.548 709.399 655.356 710.478C649.222 716.588 641.796 722.856 635.181 728.402C627.394 734.598 619.778 740.792 611 745.542C559.943 735.75 501.117 712.638 464.695 674.576C423.157 631.17 402.11 569.26 402.799 509.904C403.321 447.059 428.741 386.985 473.487 342.853Z"/><path fill="#C89630" d="M409.863 279.019C410.698 278.945 411.727 278.877 412.556 278.999C461.34 286.229 509.518 305.819 547.446 337.7C555.03 344.074 562.255 351.1 568.52 358.737C607.584 406.35 626.866 470.779 621.444 531.867C620.035 548.778 616.835 565.491 611.897 581.726C601.531 615.555 578.634 657.264 551.188 680.176C543.832 677.295 534.464 672.015 527.701 668.068C524.665 666.097 521.485 664.187 518.836 661.743C522.737 657.007 527.918 652.393 532.304 647.61C577.969 597.817 598.673 519.383 577.553 454.502C577.355 453.892 574.309 451.326 573.621 450.69C573.567 448.685 573.837 448.973 575.039 446.911C567.065 421.407 553.354 398.07 534.957 378.691C491.474 333.021 431.524 313.112 369.616 311.524C381.093 300.536 396.888 288.193 409.863 279.019Z"/><path fill="#C89630" d="M441.705 211.493C448.568 210.903 491.206 224.064 499.681 227.491C489.393 231.548 479.654 234.661 469.259 239.229C429.088 256.882 388.641 280.691 359.827 314.328C335.083 343.213 320.751 381.954 324.381 420.094C327.929 457.383 344.891 493.952 371.53 520.483C380.972 529.886 388.147 534.066 397.698 542.142C399.965 553.723 402.032 563.485 404.685 574.944L408.847 590.857C408.45 590.713 408.056 590.563 407.664 590.407C374.411 577.238 339.464 547.326 320.257 517.379C235.304 384.922 311.548 266.514 441.705 211.493Z"/><path fill="#C89630" d="M218.564 208.701C219.29 210.053 217.285 214.603 216.609 216.805C212.05 231.179 208.557 245.869 206.157 260.757C194.694 330.603 211.194 397.329 241.315 460.334C250.554 479.744 261.017 498.547 272.64 516.63C279.568 527.23 287.155 534.36 293.816 543.752L294.161 544.247C287.462 560.603 285.442 572.837 282.252 589.934C277.477 585.239 272.846 580.4 268.365 575.423C250.063 555.42 232.386 528.397 219.897 504.666C181.651 431.998 154.443 351.904 164.268 268.786C165.579 257.7 167.452 239.842 170.712 229.14C182.722 221.782 205.131 212.699 218.564 208.701Z"/><path fill="#C89630" d="M565.817 469.149C566.849 471.094 568.426 473.094 569.664 474.971C580.843 491.924 583.827 513.733 577.381 533.376C571.74 550.716 559.401 565.082 543.111 573.275C526.499 581.598 507.247 582.923 489.652 576.954C472.593 571.251 458.563 558.895 450.751 542.693C442.919 526.779 441.388 506.591 447.253 489.796C453.312 472.065 466.373 457.592 483.391 449.75C501.18 441.402 519.695 441.748 537.885 448.373C551.584 455.196 555.337 457.315 565.817 469.149ZM515.649 543.246C532.809 541.317 545.187 525.888 543.349 508.718C541.511 491.549 526.148 479.089 508.969 480.836C491.66 482.596 479.087 498.1 480.938 515.399C482.79 532.698 498.36 545.189 515.649 543.246Z"/><path fill="#C89630" d="M713.569 517.787C717.501 522.989 724.8 538.872 727.47 545.367C745.117 588.576 744.882 637.025 726.818 680.061C705.235 731.357 667.609 765.084 619.742 791.552C607.916 798.091 593.724 805.563 581.214 810.664C569.922 808.309 560.964 805.576 549.885 802.119C542.742 799.888 530.913 796.411 524.41 793.587C580.056 771.254 635.74 748.305 672.686 698.095C697.963 663.741 706.231 624.506 698.4 582.663C696.483 572.419 691.501 558.64 690.313 550.548L690.201 549.744C692.726 545.917 697.685 539.926 700.624 536.11C705.23 530.213 709.55 524.098 713.569 517.787Z"/><path fill="#C89630" d="M841.842 173.559C850.286 176.666 863.009 183.846 870.719 188.42C910.479 212.012 946.491 245.581 968.446 286.695C994.923 336.273 1004.65 396.793 995.585 452.249C993.041 467.809 989.626 480.351 985.18 495.376L981.842 504.744C972.002 484.561 965.841 471.591 953.854 452.669C954.442 445.762 956.391 436.592 957.235 429.105C959.834 406.839 958.922 384.304 954.531 362.321C945.409 317.843 921.813 276.929 886.811 247.728C878.203 240.547 868.407 234.733 859.017 228.554C856.221 216.96 853.516 205.222 849.697 193.924C847.423 187.199 843.709 180.282 841.842 173.559Z"/><path fill="#C89630" d="M805.223 517.756C806.517 518.96 809.272 523.869 810.198 525.517C821.43 545.493 830.234 567.413 837.977 588.795C857.018 641.381 866.167 693.291 859.994 749.211C858.379 763.844 857.783 775.952 853.715 790.647C842.254 798.4 831.01 803.552 818.354 808.938C813.861 810.689 809.396 812.509 804.96 814.398C811.27 793.79 816.301 777.997 819.607 756.541C830.191 687.838 811.864 616.07 782.191 554.264C788.926 542.714 797.9 530.038 805.223 517.756Z"/><path fill="#C89630" d="M681.388 149.791C688.695 149.222 697.052 149.548 704.483 149.426C727.487 149.05 748.619 150.336 771.349 154.272C781.135 167.633 788.78 185.424 795.965 200.241C747.351 185.144 686.394 188.211 636.38 192.657C615.762 195.268 596.57 198.785 576.187 202.788C566.295 198.96 556.587 194.739 546.716 190.872C537.646 187.319 528.334 184.272 519.375 180.45C527.435 176.859 543.214 172.597 551.844 170.216C595.543 158.161 636.242 152.622 681.388 149.791Z"/><path fill="#C89630" d="M441.602 819.653C449.191 818.601 464.668 825.915 472.206 828.709C482.156 832.397 492.683 836.385 502.474 840.46C490.096 845.815 469.575 850.981 456.561 854.232C397.986 868.863 335.64 875.108 275.38 868.914C270.73 868.891 254.749 866.51 249.817 865.739C238.919 851.129 232.511 836.631 225.883 819.865C287.397 836.846 344.846 836.164 407.578 826.648C419.288 824.872 430.077 821.996 441.602 819.653Z"/><path fill="#C89630" d="M634.611 873.863C641.109 873.88 648.128 874.927 654.699 875.525C663.371 876.314 674.333 876.418 682.727 878.141C667.45 900.738 647.924 921.628 626.938 939.192C616.608 947.838 602.136 960.008 589.462 965.404C587.944 966.051 581.389 965.79 579.552 965.642C563.284 965.15 544.409 962.584 528.701 958.022C536.248 954.614 544.583 949.597 551.75 945.42C585.292 925.871 610.324 903.881 634.611 873.863Z"/><path fill="#C89630" d="M431.612 57.0827C448.591 55.5073 478.469 59.7725 494.842 64.5261C484.758 70.3029 474.955 75.3147 464.923 81.5087C439.526 97.1747 416.64 116.585 397.038 139.083L388.622 148.416C373.572 145.765 358.42 143.733 343.204 142.324C361.989 111.112 401.118 76.5916 431.612 57.0827Z"/><path fill="#C89630" d="M931.064 515.745C935.839 520.274 945.383 556.332 947.307 563.629C929.047 595.379 894.916 632.784 867.59 657.067C866.298 658.212 864.673 659.211 863.215 660.175C861.77 654.949 860.431 646.978 859.234 641.478C857.381 632.961 855.327 624.249 853.646 615.74C865.579 603.777 875.792 593.638 886.801 580.749C905.007 559.432 917.046 539.6 931.064 515.745Z"/><path fill="#C89630" d="M93.1269 514.244C94.3175 515.386 104.36 533.028 106.045 535.764C110.912 543.581 116.014 551.248 121.345 558.757C137.111 580.907 151.993 595.211 170.794 614.237C167.48 626.478 163.065 645.519 160.961 657.726C159.311 656.707 157.903 655.592 156.367 654.424C152.049 651.066 146.79 645.979 142.686 642.147C122.322 622.941 103.758 601.911 87.2269 579.322C84.4552 575.571 78.5215 567.757 76.9676 563.642C79.6067 549.642 87.1639 527.327 93.1269 514.244Z"/><path fill="#C89630" d="M691.104 583.388L691.604 583.592C694.835 590.815 694.303 620.566 693.931 629.162C661.285 653.633 604.831 674.39 564.618 679.928C563.047 680.257 563.057 680.513 561.71 680.095C562.421 678.148 571.331 669.219 573.405 666.638C581.693 656.329 588.102 646.481 595.125 635.322C598.838 633.521 605.527 631.352 609.589 629.874C616.663 627.335 623.633 624.516 630.483 621.424C644.591 615.193 658.032 607.549 670.6 598.61C677.535 593.722 684.159 588.326 691.104 583.388Z"/><path fill="#C89630" d="M463.286 340.7C464.821 340.507 464.764 340.523 466.295 340.803C465.649 342.197 454.669 353.507 452.661 355.821C444.389 365.36 438.3 375.899 430.743 385.792C392.976 396.766 363.746 413.35 333.623 438.042C329.485 433.476 330.195 400.715 330.635 393.791C335.935 389.875 343.178 385.905 348.874 382.377C380.497 362.79 426.156 345.185 463.286 340.7Z"/><path fill="#C89630" d="M561.044 341.656C603.379 345.856 660.91 370.345 694.371 396.267C695.249 410.409 694.058 425.904 691.715 439.869C691.478 440.799 691.702 440.37 690.99 441.127C689.133 440.452 669.624 424.372 665.954 421.748C644.937 406.408 621.545 394.622 596.71 386.86C594.1 383.812 590.413 377.935 588.03 374.439C584.001 368.534 579.731 362.797 575.229 357.244C572.756 354.229 562.2 343.825 561.044 341.656Z"/><path fill="#C89630" d="M333.868 582.464C338.819 584.237 348.3 592.536 352.93 596.104C375.863 613.772 400.323 623.972 427.214 634.02C428.633 636.015 430.207 638.886 431.382 641.067C436.965 651.423 443.678 660.833 451.012 670.009C453.513 673.139 456.617 676.111 458.751 679.504C457.908 680.092 456.334 679.58 454.962 679.404C449.675 678.735 439.437 676.022 434.24 674.695C410.492 668.467 387.492 659.674 365.645 648.471C353.579 642.211 342.827 635.609 331.101 628.947C328.916 613.71 331.295 597.556 333.868 582.464Z"/><path fill="#C89630" d="M214.248 649.799C219.103 652.654 224.31 656.365 229.305 659.393C238.899 665.097 248.697 670.45 258.68 675.442C271.571 681.824 284.095 686.2 296.953 692.035C302.407 701.73 308.219 711.356 314.794 720.332C320.126 727.609 325.909 734.437 331.153 741.771L324.108 740.462C283.017 731.037 245.46 711.907 208.116 693.373C207.244 681.34 211.686 661.959 214.248 649.799Z"/><path fill="#C89630" d="M808.713 653.389L809.623 653.57C812.216 657.932 815.411 687.647 815.997 694.194C785.099 714.011 739.098 732.837 703.124 740.193C700.733 740.498 698.45 740.897 696.079 741.306C700.045 735.291 705.812 729.012 709.995 722.957C716.411 713.668 721.786 703.894 727.406 694.128C731.012 692.125 737.73 689.326 741.773 687.935C766.124 679.553 786.279 665.269 808.713 653.389Z"/><path fill="#C89630" d="M695.714 280.528C702.243 281.819 712.424 283.753 718.646 285.723C748.631 295.216 789.523 311.187 815.559 328.118C815.401 337.688 812.329 354.315 810.658 364.008C810.249 366.038 809.981 368.366 809.692 370.438C786.718 356.658 765.157 344.529 740.047 334.952C736.892 333.748 733.122 332.104 730.147 330.545C724.56 321.862 720.04 312.701 713.98 304.26C711.017 300.132 696.148 283.668 695.714 280.528Z"/><path fill="#C89630" d="M326.941 280.721L328.595 280.506C328.707 281.254 323.648 287.478 322.79 288.409C311.906 300.223 305.907 314.02 297.495 327.2C278.292 335.011 264.708 340.13 246.357 350.26C239.309 354.2 232.352 358.301 225.492 362.56C223.029 364.097 216.609 369.221 214.202 368.255L213.849 366.38C211.186 352.571 209.499 342.655 207.906 328.602C234.901 309.477 294.064 284.842 326.941 280.721Z"/><path fill="#C89630" d="M609.478 277.165C615.361 277.018 635.635 296.477 644.31 300.091C646.505 304.391 650.835 308.397 654.232 311.953C620.204 312.25 590.447 317.093 559.133 330.351C557.032 331.364 554.895 332.213 552.74 333.104C540.843 323.943 530.285 315.653 516.867 308.701C542.354 295.386 580.908 281.488 609.478 277.165Z"/><path fill="#C89630" d="M470.319 690.945C472.218 691.745 483.966 700.544 486.55 702.387C493.036 707.013 498.059 710.129 505.041 714.123C505.03 717.058 494.865 720.794 492.087 722.014C468.176 732.513 441.905 741.094 415.892 744.234C413.571 743.284 411.424 741.914 409.253 740.638C396.959 732.798 378.989 719.933 369.354 709.083C404.056 708.908 438.228 705.095 470.319 690.945Z"/><path fill="#C89630" d="M741.98 735.619L742.366 735.838L742.606 736.729C736.303 761.478 729.311 785.648 718.962 809.057C716.501 814.625 713.413 822.308 710.296 827.443C694.72 827.548 684.688 827.2 669.392 826.435C668.102 826.111 668.527 826.311 667.423 825.478C667.972 820.444 676.992 805.386 679.542 799.814C687.64 782.12 693.024 765.401 698.303 746.772C704.676 745.361 711.401 744.231 717.696 742.563C725.789 740.418 733.905 737.92 741.98 735.619Z"/><path fill="#C89630" d="M282.412 733.588C294.447 738.342 312.836 742.39 325.87 746.92C330.151 758.445 332.596 770.589 337.288 781.96C343.055 795.935 349.59 809.963 356.568 823.389C357.166 824.54 357.121 824.624 356.958 825.832L355.388 826.282C341.742 827.096 328.075 827.501 314.404 827.497C301.751 801.191 287.648 762.44 282.412 733.588Z"/><path fill="#C89630" d="M668.998 193.707C671.729 193.793 672.964 195.558 674.955 195.516C686.911 195.263 698.302 194.704 710.276 195.537C714.011 201.89 718.897 213.678 721.934 220.152C726.113 229.06 744.308 281.941 741.351 286.845C731.08 282.942 710.409 277.501 699.552 274.677C694.931 264.877 690.862 248.797 686.01 237.162C682.856 229.556 679.44 222.061 675.768 214.691C673.147 209.46 669.056 202.016 667.121 196.755C667.315 195.117 667.668 195.242 668.998 193.707Z"/><path fill="#C89630" d="M344.23 193.438C349.413 196.193 351.424 196.118 357.32 196.863C350.667 211.847 343.002 226.365 337.205 241.965C333.355 252.325 330.193 262.717 326.758 273.221C315.908 275.344 302.825 279.169 292.377 282.739L282.084 286.263C284.177 278.076 285.821 269.834 288.189 261.709C291.396 250.709 307.813 201.454 313.826 195.69C316.944 192.701 334.221 195.325 339.324 195.283C341.774 195.263 342.488 195.221 344.23 193.438Z"/><path fill="#C89630" d="M568.072 570.943C569.005 570.981 568.568 570.83 569.358 571.467C565.818 585.013 554.265 608.187 546.689 619.846C527.535 624.545 496.148 622.128 476.721 619.25C473.118 613.003 469.687 606.657 466.434 600.221C462.522 592.353 457.769 581.208 454.918 572.939C455.85 573.341 456.791 573.723 457.741 574.084C502.097 590.944 525.1 590.215 568.072 570.943Z"/><path fill="#C89630" d="M504.356 401.217C519.168 400.871 534.46 401.751 548.877 405.404C552.786 411.392 571.75 448.12 571.497 453.032C570.652 453.67 570.441 453.839 569.25 453.319C554.561 446.909 541.25 440.048 524.82 438.338L524.118 438.268C524.029 438.244 523.941 438.22 523.853 438.195C502.974 434.805 473.9 441.703 455.871 452.111C458.446 446.215 460.668 439.221 463.281 433.05C467.81 422.356 472.421 414.305 478.449 404.532C486.86 402.453 495.727 401.702 504.356 401.217Z"/><path fill="#C89630" d="M616.651 432.602C638.241 440.667 662.784 458.985 679.932 474.233C676.36 480.969 672.929 487.452 668.584 493.75C666.618 497.235 662.728 502.452 659.879 505.21C655.118 501.714 649.151 496.256 644.464 492.342C638.579 487.472 632.527 482.807 626.32 478.354C624.154 460.751 619.466 448.616 616.651 432.602Z"/><path fill="#C89630" d="M409.485 431.053L409.763 431.496C409.832 433.624 404.474 449.52 403.545 452.784C401.608 459.742 399.827 466.743 398.204 473.781C386.975 481.908 373.543 493.167 363.709 502.902C361.098 499.48 358.776 495.737 356.438 492.114C351.773 485.005 348.805 478.732 345.115 471.11C363.523 454.687 386.243 439.5 409.485 431.053Z"/><path fill="#C89630" d="M743.306 435.274C753.465 444.805 766.335 459.539 774.626 470.736C771.351 479.317 761.462 496.619 756.322 504.267C755.37 505.513 755.451 505.534 754.131 506.332C752.346 505.867 752.608 505.524 751.155 503.669C744.79 495.659 737.813 487.416 731.647 479.386C737.063 462.288 739.218 452.64 743.306 435.274Z"/><path fill="#C89630" d="M280.286 433.416C281.211 434.359 285.665 454.151 286.474 457.246C288.008 463.114 290.085 469.663 291.989 475.522C286.314 483.867 277.602 494.202 271.167 502.232C269.453 500.326 268.513 498.847 267.09 496.743C261.282 486.942 255.881 476.905 250.904 466.658C255.226 459.544 273.759 438.542 280.286 433.416Z"/><path fill="#A19FA3" fill-opacity="0.015686275" d="M537.885 448.373L538.269 447.353L537.158 446.284C540.591 444.905 545.101 449.187 547.429 450.425L547.94 450.149C549.379 449.385 549.865 448.974 551.498 448.979C552.918 449.653 552.816 449.266 553.342 450.251L552.247 450.331L552.096 450.986C553.332 452.474 553.098 452.533 555.28 452.86C556.053 453.914 556.467 454.591 556.684 455.909C557.276 459.505 567.402 465.363 565.817 469.149C555.337 457.315 551.584 455.196 537.885 448.373Z"/></svg>